<svg xmlns="http://www.w3.org/2000/svg" style="display: none;"><symbol viewBox="0 0 17.7 16.6" id="shape-admin"><title>admin</title>  <g> <g> <g> <circle fill=" #2683b4" cx="6.8" cy="3.7" r="3.7"/> <path fill=" #2683b4" d="M0,11.2c0-2.4,3-4.3,6.7-4.3c3.7,0,6.7,1.9,6.7,4.3H0z"/> </g> </g> <path fill=" #2683b4" d="M17.6,5.1l-1.7,1.7l-1.4-1.4l1.7-1.7c-0.8-0.3-1.7-0.1-2.4,0.5C13,5,12.9,6.1,13.3,7l-5.3,5.3
		c-0.9-0.5-2-0.3-2.7,0.4c-0.6,0.7-0.8,1.6-0.5,2.4l1.7-1.7L8,14.7l-1.7,1.7C7,16.7,8,16.6,8.6,15.9c0.7-0.7,0.9-1.8,0.4-2.6L14.4,8
		c0.9,0.4,1.9,0.3,2.6-0.4C17.7,6.9,17.9,5.9,17.6,5.1z"/> </g> </symbol><symbol viewBox="0 0 18 18" id="shape-api"><title>api</title>  <g> <path fill=" #2683b4" d="M18,10.8V7.2h-2.8l-0.6-1.3l2.1-2.1l-2.5-2.5l-2.1,2.1l-1.3-0.5V0H7.2v2.9L5.9,3.4L3.8,1.2L1.3,3.8l2.1,2.1
		L2.8,7.2H0v3.6h2.8l0.5,1.4l-2.1,2.1l2.5,2.5l2.1-2.1l1.4,0.6V18h3.6v-2.7l1.4-0.6l2.1,2.1l2.5-2.5l-2.1-2.1l0.5-1.4H18z M9,12.5
		c-1.9,0-3.4-1.5-3.4-3.4c0-1.9,1.5-3.4,3.4-3.4c1.9,0,3.4,1.5,3.4,3.4C12.4,10.9,10.8,12.5,9,12.5z"/> </g> </symbol><symbol viewBox="0 0 17.8 17.6" id="shape-apis"><title>apis</title>  <g> <g> <g> <g> <g> <path fill=" #2683b4" d="M10.1,10.5l2.1,0.5l0.4-1.6l0.8-0.2l1,1.5l1.8-1.2l-1-1.5l0.5-0.7l1.7,0.4l0.5-2.1l-1.7-0.4L16,4.4
						l1.5-1l-1.2-1.8l-1.5,1l-0.7-0.5l0.4-1.6L12.4,0L12,1.6l-0.9,0.1l-0.9-1.5L8.4,1.5l0.9,1.5L8.9,3.6L7.3,3.3L6.8,5.4l1.6,0.3
						l0.2,0.9L7.1,7.5l1.2,1.8l1.5-0.9l0.7,0.5L10.1,10.5z M10.3,5c0.2-1.1,1.3-1.8,2.4-1.5c1.1,0.2,1.8,1.3,1.5,2.4
						c-0.2,1.1-1.3,1.8-2.4,1.5C10.7,7.2,10.1,6.1,10.3,5z"/> </g> </g> </g> </g> <g> <g> <g> <g> <path fill=" #2683b4" d="M3.3,17.2l2.1,0.4L5.7,16l0.8-0.2l1,1.5l1.8-1.2l-1-1.5L8.8,14l1.7,0.4l0.5-2.1l-1.7-0.4l-0.1-0.8
						l1.5-1L9.5,8.3L8,9.3L7.3,8.8l0.4-1.6L5.6,6.7L5.2,8.3L4.4,8.5L3.4,7L1.6,8.2l0.9,1.5L2,10.3L0.5,10L0,12.1l1.6,0.3l0.2,0.9
						l-1.5,0.9L1.5,16l1.5-0.9l0.7,0.5L3.3,17.2z M3.5,11.7c0.2-1.1,1.3-1.8,2.4-1.5c1.1,0.2,1.8,1.3,1.5,2.4
						c-0.2,1.1-1.3,1.8-2.4,1.5C3.9,13.9,3.2,12.8,3.5,11.7z"/> </g> </g> </g> </g> </g> </symbol><symbol viewBox="0 0 16.9 13.5" id="shape-apiversion"><title>apiversion</title>  <g> <g> <g> <path fill=" #2683b4" d="M14.9,8V5.5h-2l-0.4-0.9L14,3l-1.8-1.8l-1.5,1.5L9.7,2.3v-2H7.2v2L6.2,2.7L4.7,1.2L2.9,3l1.5,1.5L4,5.5H2
				V8h2l0.4,1l-1.5,1.5l1.8,1.8l1.5-1.5l1,0.4v2h2.6v-2l1-0.4l1.5,1.5l1.8-1.8L12.5,9l0.4-1H14.9z M8.4,9.2C7.1,9.2,6,8.1,6,6.8
				c0-1.3,1.1-2.4,2.4-2.4c1.3,0,2.4,1.1,2.4,2.4C10.8,8.1,9.7,9.2,8.4,9.2z"/> </g> </g> <g> <path fill=" #2683b4" d="M0,13.5V0h3.1v0.9H1.2v11.6h1.9v0.9H0z"/> </g> <g> <path fill=" #2683b4" d="M16.9,0v13.5h-3.1v-0.9h1.9V0.9h-1.9V0H16.9z"/> </g> </g> </symbol><symbol viewBox="0 0 18 14.2" id="shape-app"><title>app</title>  <g> <g> <g> <path fill=" #2683b4" d="M0,0v14.2h18V0H0z M17.1,13.3H0.9V0.9h16.1V13.3z"/> </g> </g> <rect x="5.7" y="0.9" fill=" #2683b4" width="0.9" height="12.3"/> <rect x="6.6" y="4.7" fill=" #2683b4" width="10.4" height="0.9"/> <rect x="1.9" y="1.9" fill=" #2683b4" width="2.8" height="0.9"/> <rect x="1.9" y="3.8" fill=" #2683b4" width="2.8" height="0.9"/> <rect x="1.9" y="5.7" fill=" #2683b4" width="2.8" height="0.9"/> <rect x="1.9" y="7.6" fill=" #2683b4" width="2.8" height="0.9"/> <rect x="1.9" y="9.5" fill=" #2683b4" width="2.8" height="0.9"/> </g> </symbol><symbol viewBox="0 0 17 13.5" id="shape-appversion"><title>appversion</title>  <g> <g> <g> <g> <path fill=" #2683b4" d="M2,1.6v10.3H15V1.6H2z M14.3,11.2H2.6V2.3h11.7V11.2z"/> </g> </g> <rect x="6.1" y="2.3" fill=" #2683b4" width="0.7" height="8.9"/> <rect x="6.8" y="5.1" fill=" #2683b4" width="7.6" height="0.7"/> <rect x="3.3" y="3" fill=" #2683b4" width="2.1" height="0.7"/> <rect x="3.3" y="4.4" fill=" #2683b4" width="2.1" height="0.7"/> <rect x="3.3" y="5.7" fill=" #2683b4" width="2.1" height="0.7"/> <rect x="3.3" y="7.1" fill=" #2683b4" width="2.1" height="0.7"/> <rect x="3.3" y="8.5" fill=" #2683b4" width="2.1" height="0.7"/> </g> <g> <path fill=" #2683b4" d="M0,13.5V0h3.1v0.9H1.2v11.7h1.9v0.9H0z"/> </g> <g> <path fill=" #2683b4" d="M17,0v13.5h-3.1v-0.9h1.9V0.9h-1.9V0H17z"/> </g> </g> </symbol><symbol viewBox="0 0 18.6 13.3" id="shape-board"><title>board</title>  <g> <path fill=" #2683b4" d="M9.2,4c0,0-1,1.4,0.8,3.6l-3.8,3.4l-0.4,0.8l0.9-0.4L10.4,8c0,0,4.5,4,4-1.5l1.6-1.9c0,0,2.1,0.6,2.5-0.9
		C19,2.2,17.7-0.4,15,0.1c0,0-1.4,0.6-0.8,2.2l-2,1.5C12.2,3.7,10,2.9,9.2,4z"/> <g> <path fill=" #2683b4" d="M3.6,13.3l1.7-3.2l3.1-2.7C6.9,5,8.1,3.3,8.2,3.2c0.6-0.7,1.4-1,2.4-1c0.3,0,0.6,0,0.8,0.1
			c0-0.1,0-0.2,0-0.3C7.9,2,2.1,2.1,0,2.2c0.2,2.6,0.5,8.5,0.2,11.1C1,13.3,2.2,13.3,3.6,13.3z"/> <path fill=" #2683b4" d="M11.5,13c0-0.7,0-1.7-0.1-2.9c-0.3-0.2-0.7-0.4-0.9-0.5l-3.2,2.8l-2,0.9C7.4,13.2,9.6,13.1,11.5,13z"/> </g> </g> </symbol><symbol viewBox="0 0 17.9 13.3" id="shape-chart"><title>chart</title>  <g> <g> <path fill=" #2683b4" d="M17.9,13.3H0V0h17.9V13.3z M0.9,12.4h16V0.9h-16V12.4z"/> <polygon fill=" #2683b4" points="13.1,10.1 11.9,6.5 10.1,8.2 9.1,5.3 6.5,10.1 5.2,7.5 3.1,10.1 2.2,6.6 1.2,7.9 0.4,7.5 2.7,4.8 
			3.6,8.2 5.4,5.9 6.5,8.2 9.2,3.1 10.5,6.7 12.3,5 13.4,8.1 15.6,5 17.6,7.8 16.8,8.1 15.6,6.5 		"/> </g> </g> </symbol><symbol viewBox="0 0 16.1 16.1" id="shape-config"><title>config</title>  <path fill=" #2683b4" d="M16.1,4.3c0-0.2-0.1-0.4-0.3-0.5c-0.2-0.1-0.4,0-0.6,0.1l-1.8,1.8l-0.6-0.6L11,3.3l-0.6-0.6l1.8-1.8
	c0.2-0.1,0.2-0.4,0.1-0.6C12.2,0.1,12,0,11.8,0c-1.1,0-2.1,0.4-2.9,1.2C7.6,2.5,7.3,4.4,8,6l-6.6,5.8l-0.8,0.8c-0.8,0.8-0.8,2.2,0,3
	c0.8,0.8,2.2,0.8,3,0l0.8-0.8l5.8-6.6c1.6,0.7,3.5,0.4,4.7-0.9C15.7,6.4,16.1,5.3,16.1,4.3z M2.9,14.7c-0.4,0.4-1.1,0.4-1.5,0
	c-0.4-0.4-0.4-1.1,0-1.5c0.4-0.4,1.1-0.4,1.5,0C3.3,13.6,3.3,14.3,2.9,14.7z"/> </symbol><symbol viewBox="0 0 16 17" id="shape-connector"><title>connector</title>  <path fill=" #2683b4" d="M15,4.1l-0.2,0.2l0.1,0.1c0.9,1.2,0.8,3-0.4,4l-2.2,1.9L7.7,4.1l2.2-1.9c1.1-1,2.8-0.8,3.7,0.4l0.1,0.1
	l0.2-0.2c0.7-0.6,0.8-1.8,0.3-2.6H0v15c0.2-0.6,0.6-1.1,1-1.5l0.2-0.2l-0.1-0.1c-0.9-1.2-0.8-3,0.4-4l2.2-1.9l0.8,1.1l2-1.7l1.2,1.5
	l-2,1.7l0.7,0.9l2-1.7l1.2,1.5l-2,1.7l0.8,1.1l-2.2,1.9c-1.1,1-2.8,0.8-3.7-0.4l-0.1-0.1l-0.2,0.2c-0.5,0.5-0.7,1.3-0.6,1.9H16V2.9
	C15.8,3.3,15.4,3.8,15,4.1z"/> </symbol><symbol viewBox="0 0 18.6 16.8" id="shape-contract"><title>contract</title>  <g> <g> <g> <g> <path fill=" #2683b4" d="M3.9,7.3c-0.4-0.4-1-0.4-1.4,0L0.3,9.5c-0.4,0.4-0.4,1,0,1.4c0.4,0.4,1,0.4,1.4,0l2.2-2.2
					C4.3,8.3,4.3,7.6,3.9,7.3z"/> </g> </g> <g> <g> <path fill=" #2683b4" d="M6.3,8.7c-0.4-0.4-1-0.4-1.4,0l-2.7,2.7c-0.4,0.4-0.4,1,0,1.4c0.4,0.4,1,0.4,1.4,0l2.7-2.7
					C6.7,9.7,6.7,9.1,6.3,8.7z"/> </g> </g> <g> <g> <path fill=" #2683b4" d="M7.9,11.1c-0.4-0.4-1-0.4-1.4,0l-1.8,1.8c-0.4,0.4-0.4,1,0,1.4c0.4,0.4,1,0.4,1.4,0l1.8-1.8
					C8.3,12.1,8.3,11.5,7.9,11.1z"/> </g> </g> <g> <g> <path fill=" #2683b4" d="M9.9,13c-0.4-0.4-1.1-0.4-1.5,0L7,14.4c-0.4,0.4-0.4,1.1,0,1.5c0.4,0.4,1.1,0.4,1.5,0l1.4-1.4
					C10.3,14.1,10.3,13.4,9.9,13z"/> </g> </g> <path fill=" #2683b4" d="M18.2,10l-2.4-2.4l-4.2-4.2l-2,2c-0.3,0.3-0.6,0.4-1,0.4h0c-0.4,0-0.7-0.1-1-0.4c-0.3-0.3-0.4-0.6-0.4-1
			c0-0.4,0.1-0.7,0.4-1l2-2L8.5,0.3C8.1-0.1,7.4-0.1,7,0.3l-6,6C0.6,6.7,0.6,7.4,1,7.8L1.2,8l1.2-1.2c0.6-0.5,1.4-0.5,2,0
			c0.4,0.4,0.5,1.1,0.3,1.6l0.2-0.2l0,0c0.6-0.5,1.4-0.5,2,0c0.6,0.6,0.6,1.4,0,2l-0.5,0.5l0,0l0,0c0.6-0.6,1.4-0.6,2,0l0,0
			c0.5,0.5,0.5,1.2,0.2,1.7c0.5-0.3,1.3-0.3,1.7,0.2v0c0.6,0.5,0.6,1.4,0,2L9,15.8l0.7,0.7c0.4,0.4,1.1,0.4,1.5,0
			c0.4-0.4,0.4-1.1,0-1.5l-0.7-0.7l0.5-0.5l1.2,1.2c0.4,0.4,1.1,0.4,1.5,0c0.4-0.4,0.4-1.1,0-1.5l-1.2-1.2l0.5-0.5l1.7,1.7
			c0.4,0.4,1.1,0.4,1.5,0c0.4-0.4,0.4-1.1,0-1.5l-1.7-1.7L15,9.8l1.7,1.7c0.4,0.4,1.1,0.4,1.5,0C18.6,11.1,18.6,10.4,18.2,10z"/> <g> <g> <path fill=" #2683b4" d="M18.3,5.9l-5.6-5.6c-0.4-0.4-1-0.4-1.4,0l-0.8,0.8c0,0,0,0,0,0L7.9,3.8c-0.4,0.4-0.4,1,0,1.3
					c0.4,0.4,1,0.4,1.3,0l2.4-2.4l5.7,5.7l1-1C18.7,6.9,18.7,6.3,18.3,5.9z"/> </g> </g> </g> </g> </symbol><symbol viewBox="0 0 14.2 17.9" id="shape-data"><title>data</title>  <g> <g> <g> <polygon fill=" #2683b4" points="5.5,10 4.6,10.6 4.6,9.4 5.5,8.8 			"/> <polygon fill=" #2683b4" points="5.5,11.8 4.6,12.4 4.6,11.2 5.5,10.6 			"/> <polygon fill=" #2683b4" points="5.5,13.7 4.6,14.3 4.6,13 5.5,12.4 			"/> <polygon fill=" #2683b4" points="5.5,15.5 4.6,16.1 4.6,14.9 5.5,14.3 			"/> <polygon fill=" #2683b4" points="5.5,17.3 4.6,17.9 4.6,16.7 5.5,16.1 			"/> <polygon fill=" #2683b4" points="7,9.1 6.1,9.7 6.1,8.5 7,7.9 			"/> <polygon fill=" #2683b4" points="7,10.9 6.1,11.5 6.1,10.3 7,9.7 			"/> <polygon fill=" #2683b4" points="7,12.7 6.1,13.3 6.1,12.1 7,11.5 			"/> <polygon fill=" #2683b4" points="7,14.6 6.1,15.2 6.1,14 7,13.3 			"/> <polygon fill=" #2683b4" points="7,16.4 6.1,17 6.1,15.8 7,15.2 			"/> <polygon fill=" #2683b4" points="8.5,8.2 7.6,8.8 7.6,7.6 8.5,7 			"/> <polygon fill=" #2683b4" points="8.5,10 7.6,10.6 7.6,9.4 8.5,8.8 			"/> <polygon fill=" #2683b4" points="8.5,11.8 7.6,12.4 7.6,11.2 8.5,10.6 			"/> <polygon fill=" #2683b4" points="8.5,13.7 7.6,14.3 7.6,13 8.5,12.4 			"/> <polygon fill=" #2683b4" points="8.5,15.5 7.6,16.1 7.6,14.9 8.5,14.3 			"/> <polygon fill=" #2683b4" points="3,10 3.9,10.6 3.9,9.4 3,8.8 			"/> <polygon fill=" #2683b4" points="3,11.8 3.9,12.4 3.9,11.2 3,10.6 			"/> <polygon fill=" #2683b4" points="3,13.7 3.9,14.3 3.9,13 3,12.4 			"/> <polygon fill=" #2683b4" points="3,15.5 3.9,16.1 3.9,14.9 3,14.3 			"/> <polygon fill=" #2683b4" points="3,17.3 3.9,17.9 3.9,16.7 3,16.1 			"/> <polygon fill=" #2683b4" points="1.5,9.1 2.4,9.7 2.4,8.5 1.5,7.9 			"/> <polygon fill=" #2683b4" points="1.5,10.9 2.4,11.5 2.4,10.3 1.5,9.7 			"/> <polygon fill=" #2683b4" points="1.5,12.7 2.4,13.3 2.4,12.1 1.5,11.5 			"/> <polygon fill=" #2683b4" points="1.5,14.6 2.4,15.2 2.4,14 1.5,13.3 			"/> <polygon fill=" #2683b4" points="1.5,16.4 2.4,17 2.4,15.8 1.5,15.2 			"/> <polygon fill=" #2683b4" points="0,8.2 0.9,8.8 0.9,7.6 0,7 			"/> <polygon fill=" #2683b4" points="0,10 0.9,10.6 0.9,9.4 0,8.8 			"/> <polygon fill=" #2683b4" points="0,11.8 0.9,12.4 0.9,11.2 0,10.6 			"/> <polygon fill=" #2683b4" points="0,13.7 0.9,14.3 0.9,13 0,12.4 			"/> <polygon fill=" #2683b4" points="0,15.5 0.9,16.1 0.9,14.9 0,14.3 			"/> <polygon fill=" #2683b4" points="0.3,6.4 4.3,8.8 8.2,6.4 4.3,3.9 			"/> </g> <g> <polygon fill=" #2683b4" points="11.2,6.1 10.3,6.7 10.3,5.5 11.2,4.9 			"/> <polygon fill=" #2683b4" points="11.2,7.9 10.3,8.5 10.3,7.3 11.2,6.7 			"/> <polygon fill=" #2683b4" points="11.2,9.7 10.3,10.3 10.3,9.1 11.2,8.5 			"/> <polygon fill=" #2683b4" points="11.2,11.5 10.3,12.1 10.3,10.9 11.2,10.3 			"/> <polygon fill=" #2683b4" points="11.2,13.4 10.3,14 10.3,12.8 11.2,12.1 			"/> <polygon fill=" #2683b4" points="12.7,5.2 11.8,5.8 11.8,4.6 12.7,3.9 			"/> <polygon fill=" #2683b4" points="12.7,7 11.8,7.6 11.8,6.4 12.7,5.8 			"/> <polygon fill=" #2683b4" points="12.7,8.8 11.8,9.4 11.8,8.2 12.7,7.6 			"/> <polygon fill=" #2683b4" points="12.7,10.6 11.8,11.2 11.8,10 12.7,9.4 			"/> <polygon fill=" #2683b4" points="12.7,12.5 11.8,13.1 11.8,11.8 12.7,11.2 			"/> <polygon fill=" #2683b4" points="14.2,4.3 13.3,4.9 13.3,3.6 14.2,3 			"/> <polygon fill=" #2683b4" points="14.2,6.1 13.3,6.7 13.3,5.5 14.2,4.9 			"/> <polygon fill=" #2683b4" points="14.2,7.9 13.3,8.5 13.3,7.3 14.2,6.7 			"/> <polygon fill=" #2683b4" points="14.2,9.7 13.3,10.3 13.3,9.1 14.2,8.5 			"/> <polygon fill=" #2683b4" points="14.2,11.5 13.3,12.1 13.3,10.9 14.2,10.3 			"/> <polygon fill=" #2683b4" points="8.7,6.1 9.6,6.7 9.6,5.5 8.7,4.9 			"/> <polygon fill=" #2683b4" points="8.7,7.9 9.6,8.5 9.6,7.3 8.7,6.7 			"/> <polygon fill=" #2683b4" points="8.7,9.7 9.6,10.3 9.6,9.1 8.7,8.5 			"/> <polygon fill=" #2683b4" points="8.7,11.5 9.6,12.1 9.6,10.9 8.7,10.3 			"/> <polygon fill=" #2683b4" points="8.7,13.4 9.6,14 9.6,12.8 8.7,12.1 			"/> <polygon fill=" #2683b4" points="7.2,5.2 8.1,5.8 8.1,4.6 7.2,3.9 			"/> <polygon fill=" #2683b4" points="5.7,4.3 6.6,4.9 6.6,3.6 5.7,3 			"/> <polygon fill=" #2683b4" points="5.7,6.1 6.6,6.7 6.6,5.5 5.7,4.9 			"/> <polygon fill=" #2683b4" points="6,2.4 10,4.9 13.9,2.4 10,0 			"/> </g> </g> </g> </symbol><symbol viewBox="0 0 18 20" id="shape-dataconfig"><title>dataconfig</title>  <g> <g> <g> <g> <polygon fill=" #2683b4" points="5.1,9.3 4.2,9.8 4.2,8.7 5.1,8.1 				"/> <polygon fill=" #2683b4" points="5.1,10.9 4.2,11.5 4.2,10.4 5.1,9.8 				"/> <polygon fill=" #2683b4" points="5.1,12.6 4.2,13.2 4.2,12.1 5.1,11.5 				"/> <polygon fill=" #2683b4" points="5.1,14.3 4.2,14.9 4.2,13.7 5.1,13.2 				"/> <polygon fill=" #2683b4" points="5.1,16 4.2,16.6 4.2,15.4 5.1,14.9 				"/> <polygon fill=" #2683b4" points="6.5,8.4 5.7,9 5.7,7.9 6.5,7.3 				"/> <polygon fill=" #2683b4" points="6.5,10.1 5.7,10.7 5.7,9.5 6.5,9 				"/> <polygon fill=" #2683b4" points="6.5,11.8 5.7,12.3 5.7,11.2 6.5,10.7 				"/> <polygon fill=" #2683b4" points="6.5,13.5 5.7,14 5.7,12.9 6.5,12.3 				"/> <polygon fill=" #2683b4" points="6.5,15.2 5.7,15.7 5.7,14.6 6.5,14 				"/> <polygon fill=" #2683b4" points="7.9,7.6 7.1,8.1 7.1,7 7.9,6.4 				"/> <polygon fill=" #2683b4" points="7.9,9.3 7.1,9.8 7.1,8.7 7.9,8.1 				"/> <polygon fill=" #2683b4" points="7.9,10.9 7.1,11.5 7.1,10.4 7.9,9.8 				"/> <polygon fill=" #2683b4" points="7.9,12.6 7.1,13.2 7.1,12.1 7.9,11.5 				"/> <polygon fill=" #2683b4" points="7.9,14.3 7.1,14.9 7.1,13.7 7.9,13.2 				"/> <polygon fill=" #2683b4" points="2.8,9.3 3.7,9.8 3.7,8.7 2.8,8.1 				"/> <polygon fill=" #2683b4" points="2.8,10.9 3.7,11.5 3.7,10.4 2.8,9.8 				"/> <polygon fill=" #2683b4" points="2.8,12.6 3.7,13.2 3.7,12.1 2.8,11.5 				"/> <polygon fill=" #2683b4" points="2.8,14.3 3.7,14.9 3.7,13.7 2.8,13.2 				"/> <polygon fill=" #2683b4" points="2.8,16 3.7,16.6 3.7,15.4 2.8,14.9 				"/> <polygon fill=" #2683b4" points="1.4,8.4 2.3,9 2.3,7.9 1.4,7.3 				"/> <polygon fill=" #2683b4" points="1.4,10.1 2.3,10.7 2.3,9.5 1.4,9 				"/> <polygon fill=" #2683b4" points="1.4,11.8 2.3,12.3 2.3,11.2 1.4,10.7 				"/> <polygon fill=" #2683b4" points="1.4,13.5 2.3,14 2.3,12.9 1.4,12.3 				"/> <polygon fill=" #2683b4" points="1.4,15.2 2.3,15.7 2.3,14.6 1.4,14 				"/> <polygon fill=" #2683b4" points="0,7.6 0.8,8.1 0.8,7 0,6.4 				"/> <polygon fill=" #2683b4" points="0,9.3 0.8,9.8 0.8,8.7 0,8.1 				"/> <polygon fill=" #2683b4" points="0,10.9 0.8,11.5 0.8,10.4 0,9.8 				"/> <polygon fill=" #2683b4" points="0,12.6 0.8,13.2 0.8,12.1 0,11.5 				"/> <polygon fill=" #2683b4" points="0,14.3 0.8,14.9 0.8,13.7 0,13.2 				"/> <polygon fill=" #2683b4" points="0.3,5.9 4,8.1 7.6,5.9 4,3.6 				"/> </g> <g> <polygon fill=" #2683b4" points="10.4,5.6 9.6,6.2 9.6,5.1 10.4,4.5 				"/> <polygon fill=" #2683b4" points="10.4,7.3 9.6,7.9 9.6,6.7 10.4,6.2 				"/> <polygon fill=" #2683b4" points="10.4,9 9.6,9.5 9.6,8.4 10.4,7.9 				"/> <polygon fill=" #2683b4" points="10.4,10.7 9.6,11.2 9.6,10.1 10.4,9.5 				"/> <polygon fill=" #2683b4" points="10.4,12.4 9.6,12.9 9.6,11.8 10.4,11.2 				"/> <polygon fill=" #2683b4" points="11.8,4.8 11,5.3 11,4.2 11.8,3.7 				"/> <polygon fill=" #2683b4" points="11.8,6.5 11,7 11,5.9 11.8,5.3 				"/> <polygon fill=" #2683b4" points="11.8,8.1 11,8.7 11,7.6 11.8,7 				"/> <polygon fill=" #2683b4" points="11.8,9.8 11,10.4 11,9.3 11.8,8.7 				"/> <polygon fill=" #2683b4" points="11.8,11.5 11,12.1 11,11 11.8,10.4 				"/> <polygon fill=" #2683b4" points="13.2,3.9 12.4,4.5 12.4,3.4 13.2,2.8 				"/> <polygon fill=" #2683b4" points="13.2,5.6 12.4,6.2 12.4,5.1 13.2,4.5 				"/> <polygon fill=" #2683b4" points="13.2,7.3 12.4,7.9 12.4,6.7 13.2,6.2 				"/> <polygon fill=" #2683b4" points="13.2,9 12.4,9.5 12.4,8.4 13.2,7.9 				"/> <polygon fill=" #2683b4" points="13.2,10.7 12.4,11.2 12.4,10.1 13.2,9.5 				"/> <polygon fill=" #2683b4" points="8.1,5.6 9,6.2 9,5.1 8.1,4.5 				"/> <polygon fill=" #2683b4" points="8.1,7.3 9,7.9 9,6.7 8.1,6.2 				"/> <polygon fill=" #2683b4" points="8.1,9 9,9.5 9,8.4 8.1,7.9 				"/> <polygon fill=" #2683b4" points="8.1,10.7 9,11.2 9,10.1 8.1,9.5 				"/> <polygon fill=" #2683b4" points="8.1,12.4 9,12.9 9,11.8 8.1,11.2 				"/> <polygon fill=" #2683b4" points="6.7,4.8 7.6,5.3 7.6,4.2 6.7,3.7 				"/> <polygon fill=" #2683b4" points="5.3,3.9 6.2,4.5 6.2,3.4 5.3,2.8 				"/> <polygon fill=" #2683b4" points="5.3,5.6 6.2,6.2 6.2,5.1 5.3,4.5 				"/> <polygon fill=" #2683b4" points="5.6,2.2 9.3,4.5 12.9,2.2 9.3,0 				"/> </g> </g> </g> <path fill=" #2683b4" d="M17.9,9.2l-1.7,1.6l-1.4-1.3l1.7-1.6c-0.8-0.3-1.7-0.1-2.3,0.5c-0.7,0.7-0.8,1.7-0.4,2.6l-5,5
		C8,15.4,7,15.6,6.3,16.3c-0.6,0.6-0.8,1.5-0.5,2.3l1.7-1.6l1.4,1.3l-1.7,1.6c0.8,0.3,1.7,0.1,2.3-0.5c0.7-0.7,0.8-1.7,0.4-2.5l5-5
		c0.8,0.4,1.8,0.3,2.5-0.4C18,10.8,18.1,9.9,17.9,9.2z"/> </g> </symbol><symbol viewBox="0 0 16.9 17.5" id="shape-discuss"><title>discuss</title>  <path fill=" #2683b4" d="M15.7,6.2h-2.8v-5c0-0.6-0.5-1.1-1.1-1.1H1.1C0.5,0,0,0.5,0,1.1v6.2C0,8,0.5,8.5,1.1,8.5h1.1v4.3
	c0,0.6,0.6,1.1,1.2,1.1h2.4l-1.6,3.7l6-3.7h5.5c0.7,0,1.2-0.5,1.2-1.1V7.2C16.9,6.6,16.4,6.2,15.7,6.2z M2.2,7.7H1.1
	c-0.2,0-0.4-0.2-0.4-0.4V1.1c0-0.2,0.2-0.4,0.4-0.4h10.7c0.2,0,0.4,0.2,0.4,0.4v5v0.8v0.4c0,0.2-0.2,0.4-0.4,0.4H8.7l0.9,2.7
	L6.1,7.7H3H2.2z M16.1,12.8c0,0.1-0.2,0.3-0.5,0.3H10l-4.1,2.5L7,13.1H3.4c-0.3,0-0.5-0.1-0.5-0.3V8.5h2.9l5.3,4.2L9.7,8.5h2.1
	c0.6,0,1.1-0.5,1.1-1.1V6.9h2.8c0.3,0,0.5,0.1,0.5,0.3V12.8z"/> </symbol><symbol viewBox="0 0 13.6 17.8" id="shape-document"><title>document</title>  <g> <path fill=" #2683b4" d="M13.6,17.8H0V0h8.3v5.3h5.3V17.8z M0.8,17.1h12.1v-11H7.6V0.8H0.8V17.1z"/> <polygon fill=" #2683b4" points="9.6,0.4 9.6,4.1 13.3,4.1 	"/> <g> <polygon fill=" #2683b4" points="3.2,15.7 2.3,14.9 1.9,15.5 1.3,15 2.1,13.8 3.3,14.8 5.8,14 8.2,14.7 10.5,14 11.6,14.5 
			11.3,15.2 10.4,14.8 8.2,15.4 5.8,14.8 		"/> </g> <g> <polygon fill=" #2683b4" points="3.2,11.4 2.3,10.7 1.9,11.2 1.3,10.8 2.1,9.6 3.3,10.6 5.8,9.8 8.2,10.4 10.5,9.7 11.6,10.2 
			11.3,10.9 10.4,10.5 8.2,11.2 5.8,10.5 		"/> </g> <g> <polygon fill=" #2683b4" points="3.2,8.3 2.3,7.5 1.9,8 1.3,7.6 2.1,6.4 3.3,7.4 5.8,6.6 8.2,7.2 10.5,6.6 11.6,7.1 11.3,7.7 
			10.4,7.4 8.2,8 5.8,7.4 		"/> </g> </g> </symbol><symbol viewBox="0 0 16.4 16.4" id="shape-external"><title>external</title>  <g> <g> <polygon fill=" #2683b4" points="3.4,12.8 3.8,9.2 9,4.1 0,4.1 0,16.4 12.3,16.4 12.3,7.5 7,12.8 		"/> </g> <polygon fill=" #2683b4" points="16.4,13.1 13.7,11.9 13.7,4.8 6.6,11.9 4.4,11.9 4.7,9.6 11.6,2.8 6.1,2.8 3.3,0 16.4,0 	"/> </g> </symbol><symbol viewBox="0 0 17 10" id="shape-eye"><title>eye</title>  <g> <path fill=" #2683b4" d="M0.1,4L0,4.7c3.3,6.5,12.6,7.2,16.9,1.3L17,5.3C13.7-1.2,4.4-1.9,0.1,4z M8.4,8.7c-2.1-0.2-3.7-2-3.5-4
		C5,2.6,6.8,1.1,9,1.3c2.1,0.2,3.7,2,3.5,4C12.3,7.4,10.5,8.9,8.4,8.7z"/> <ellipse fill=" #2683b4" cx="8.7" cy="5" rx="1.9" ry="1.9"/> </g> </symbol><symbol viewBox="0 0 17 17" id="shape-flowchart"><title>flowchart</title>  <path fill=" #2683b4" d="M16.5,11.7c0.3,0,0.5-0.2,0.5-0.5V9c0-0.3-0.2-0.5-0.5-0.5h-4.8V6.4c0-0.6-0.5-1.1-1.1-1.1H6.9
	c-0.3,0-0.5-0.2-0.5-0.5V3.2h4.8c0.3,0,0.5-0.2,0.5-0.5V0.5c0-0.3-0.2-0.5-0.5-0.5H0.5C0.2,0,0,0.2,0,0.5v2.1c0,0.3,0.2,0.5,0.5,0.5
	h4.8v2.1c0,0.6,0.5,1.1,1.1,1.1h3.7c0.3,0,0.5,0.2,0.5,0.5v1.6H5.8C5.6,8.5,5.3,8.7,5.3,9v2.1c0,0.3,0.2,0.5,0.5,0.5h4.8v2.1H5.8
	c-0.3,0-0.5,0.2-0.5,0.5v2.1c0,0.3,0.2,0.5,0.5,0.5h10.6c0.3,0,0.5-0.2,0.5-0.5v-2.1c0-0.3-0.2-0.5-0.5-0.5h-4.8v-2.1H16.5z"/> </symbol><symbol viewBox="0 0 16 13" id="shape-folder"><title>folder</title>  <g> <g> <polygon fill=" #2683b4" points="0,4 2,13 14,13 16,4 		"/> <polygon fill=" #2683b4" points="15,2 6,2 4,0 1,0 1,3 15,3 		"/> </g> </g> </symbol><symbol viewBox="0 0 17 17" id="shape-font"><title>font</title>  <g> <path fill=" #2683b4" d="M11.6,10.1c0,0.5,0.3,0.7,0.7,0.7c0.4,0,0.8-0.3,0.9-0.7c0-0.1,0-0.2,0-0.3V9.2
		C12.3,9.2,11.6,9.4,11.6,10.1z"/> <path fill=" #2683b4" d="M8.5,0C3.8,0,0,3.8,0,8.5C0,13.2,3.8,17,8.5,17c4.7,0,8.5-3.8,8.5-8.5C17,3.8,13.2,0,8.5,0z M7.3,12
		L6.7,9.9H4.4L3.8,12H1.9l2.5-8.1h2.4L9.3,12H7.3z M13.5,12l-0.1-0.6h0c-0.4,0.5-1,0.7-1.7,0.7c-1.2,0-1.9-0.9-1.9-1.8
		c0-1.5,1.4-2.2,3.4-2.2V8c0-0.3-0.2-0.8-1.1-0.8c-0.6,0-1.2,0.2-1.6,0.4l-0.3-1.2C10.6,6.3,11.4,6,12.5,6c2,0,2.6,1.2,2.6,2.5v2.1
		c0,0.6,0,1.1,0.1,1.4H13.5z"/> <path fill=" #2683b4" d="M5.5,5.3L5.5,5.3C5.4,5.7,5.2,6.3,5.1,6.8L4.6,8.5h1.8L5.9,6.8C5.8,6.3,5.6,5.7,5.5,5.3z"/> </g> </symbol><symbol viewBox="0 0 12.3 17.7" id="shape-go"><title>go</title>  <g> <g> <g> <polygon fill=" #2683b4" points="3.4,0 3.4,3.7 8.5,8.8 3.4,14 3.4,17.7 12.3,8.8 			"/> </g> <g> <polygon fill=" #2683b4" points="3.4,0 3.4,3.7 8.5,8.8 3.4,14 3.4,17.7 12.3,8.8 			"/> </g> <g> <polygon fill=" #2683b4" points="0,2.9 0,5.4 3.5,8.8 0,12.3 0,14.8 6,8.8 			"/> </g> </g> </g> </symbol><symbol viewBox="0 0 17.4 17.4" id="shape-group"><title>group</title>  <g> <g> <path fill=" #2683b4" d="M8.7,0C3.9,0,0,3.9,0,8.7c0,4.8,3.9,8.7,8.7,8.7c4.8,0,8.7-3.9,8.7-8.7C17.4,3.9,13.5,0,8.7,0z M13,12.8
			c-1,0-1.9-0.8-1.9-1.9c0-0.2,0-0.4,0.1-0.6l-3.8-2C7.1,8.6,6.8,8.9,6.3,9.1l1.5,3.1c0.2,0,0.3-0.1,0.5-0.1c1,0,1.9,0.8,1.9,1.9
			c0,1-0.8,1.9-1.9,1.9c-1,0-1.9-0.8-1.9-1.9c0-0.7,0.4-1.3,1-1.6L5.9,9.3C5.7,9.3,5.5,9.4,5.2,9.4c-1.5,0-2.7-1.2-2.7-2.7
			S3.8,4,5.2,4c1.3,0,2.4,0.9,2.6,2.1l3.3-0.5c0-0.2-0.1-0.4-0.1-0.5c0-1,0.8-1.9,1.9-1.9c1,0,1.9,0.8,1.9,1.9C14.9,6.2,14,7,13,7
			c-0.7,0-1.3-0.4-1.7-1L7.9,6.5c0,0.1,0,0.1,0,0.2c0,0.3-0.1,0.6-0.2,0.9l3.8,2C11.9,9.3,12.4,9,13,9c1,0,1.9,0.8,1.9,1.9
			C14.9,11.9,14,12.8,13,12.8z"/> </g> </g> </symbol><symbol viewBox="0 0 17 17.1" id="shape-legals"><title>legals</title>  <path fill=" #2683b4" d="M16.9,6.1C16.8,5.9,16.4,6,16,6.2L10.9,1c0.2-0.4,0.3-0.8,0.1-0.9c-0.3-0.3-1.5,0.3-2.6,1.4
	C7.2,2.6,6.6,3.7,7,4.1C7.1,4.2,7.5,4.2,7.9,4l1.8,1.8C9.4,6,9,6.3,8.7,6.7l-7,7c-1.3,1.3-2,2.8-1.6,3.3c0.5,0.5,1.9-0.2,3.3-1.6
	l7-7c0.3-0.3,0.6-0.7,0.9-1l1.8,1.8c-0.2,0.4-0.3,0.8-0.1,0.9c0.3,0.3,1.5-0.3,2.6-1.4C16.7,7.6,17.3,6.4,16.9,6.1z"/> </symbol><symbol viewBox="0 0 16 16" id="shape-license"><title>license</title>  <g> <g> <path fill=" #2683b4" d="M9.9,9.2l1,0.3c0.3,0.1,0.5-0.1,0.5-0.3l0-1.1c0-0.3,0.2-0.6,0.5-0.7l1-0.3c0.3-0.1,0.3-0.3,0.2-0.6
			l-0.6-0.9c-0.2-0.2-0.2-0.6,0-0.8L13.2,4c0.2-0.2,0.1-0.5-0.2-0.6l-1-0.3c-0.3-0.1-0.5-0.4-0.5-0.7l0-1.1C11.5,1,11.2,0.9,11,1
			l-1,0.3c-0.3,0.1-0.6,0-0.8-0.2L8.5,0.2c-0.2-0.2-0.4-0.2-0.6,0L7.3,1.1C7.1,1.3,6.8,1.4,6.5,1.3L5.5,1C5.2,0.9,5,1,5,1.3l0,1.1
			C5,2.7,4.8,3,4.5,3.1l-1,0.3C3.2,3.5,3.1,3.7,3.3,4l0.6,0.9c0.2,0.2,0.2,0.6,0,0.8L3.3,6.6C3.1,6.8,3.2,7,3.5,7.1l1,0.3
			C4.8,7.5,5,7.8,5,8.1l0,1.1c0,0.3,0.2,0.4,0.5,0.3l1-0.3c0.3-0.1,0.6,0,0.8,0.2l0.6,0.9c0.2,0.2,0.4,0.2,0.6,0l0.6-0.9
			C9.3,9.2,9.7,9.1,9.9,9.2z"/> <path fill=" #2683b4" d="M6.3,11.2L6,10.8L5.5,11c-0.2,0.1-0.4,0.1-0.6,0.1c-0.9,0-1.5-0.6-1.8-1.3L0,13h3v3l3.9-4.2
			C6.7,11.7,6.4,11.5,6.3,11.2z"/> <path fill=" #2683b4" d="M12.5,9.3c-0.1,1-0.8,1.8-1.8,1.8c-0.2,0-0.4,0-0.6-0.1l-0.5-0.2l-0.3,0.4c-0.1,0.1-0.2,0.3-0.4,0.4L13,16
			v-3h3L12.5,9.3z"/> </g> </g> </symbol><symbol viewBox="0 0 13 17.7" id="shape-people"><title>people</title>  <g> <g> <circle fill=" #2683b4" cx="3.3" cy="5.2" r="1.3"/> <path fill=" #2683b4" d="M5.8,8.8v2.5c0,0.2,0.2,0.4,0.4,0.4c0.2,0,0.4-0.2,0.4-0.4v-3c0-0.8-1.5-1.4-3.3-1.4C1.5,6.9,0,7.5,0,8.2
			v3c0,0.2,0.2,0.4,0.4,0.4c0.2,0,0.4-0.2,0.4-0.4V8.8h0.5v8.1c0,0.5,0.4,0.8,0.8,0.8c0.5,0,0.8-0.4,0.8-0.8v-4.4h0.6v4.4
			c0,0.5,0.4,0.8,0.8,0.8c0.5,0,0.8-0.4,0.8-0.8V8.8H5.8z"/> </g> <g> <circle fill=" #2683b4" cx="9.7" cy="1.3" r="1.3"/> <path fill=" #2683b4" d="M12.2,4.9v2.5c0,0.2,0.2,0.4,0.4,0.4S13,7.6,13,7.3v-3C13,3.6,11.5,3,9.7,3C7.9,3,6.4,3.6,6.4,4.3v3
			c0,0.2,0.2,0.4,0.4,0.4c0.2,0,0.4-0.2,0.4-0.4V4.9h0.5V13c0,0.5,0.4,0.8,0.8,0.8c0.5,0,0.8-0.4,0.8-0.8V8.6H10V13
			c0,0.5,0.4,0.8,0.8,0.8c0.4,0,0.8-0.4,0.8-0.8V4.9H12.2z"/> </g> </g> </symbol><symbol viewBox="0 0 15.4 13.6" id="shape-scope"><title>scope</title>  <path fill=" #2683b4" d="M15.4,3.6V0h-3.6v0.9H3.6V0H0v3.6h0.9V10H0v3.6h3.6v-0.9h8.2v0.9h3.6V10h-0.9V3.6H15.4z M2.3,12.3H1.4v-0.9
	h0.9V12.3z M2.3,2.3H1.4V1.4h0.9V2.3z M12.7,10h-0.9v0.9H3.6V10H2.7V3.6h0.9V2.7h8.2v0.9h0.9V10z M14.1,12.3h-0.9v-0.9h0.9V12.3z
	 M14.1,2.3h-0.9V1.4h0.9V2.3z"/> </symbol><symbol viewBox="0 0 17.9 16.4" id="shape-searchdoc"><title>searchdoc</title>  <g> <g> <path fill=" #2683b4" d="M17.9,16.4H5.4V0H13v4.9h4.9V16.4z M6.1,15.7h11.2V5.6h-4.9V0.7H6.1V15.7z"/> <polygon fill=" #2683b4" points="14.2,0.3 14.2,3.7 17.6,3.7 		"/> <g> <g> <g> <path fill=" #2683b4" d="M11.8,1.9C9,1.5,6.6,3.5,6.2,6.2c-0.3,2.7,1.6,5.2,4.4,5.5c2.7,0.3,5.2-1.6,5.5-4.4
						C16.4,4.7,14.5,2.2,11.8,1.9z M14.9,7.2c-0.2,2.1-2.1,3.6-4.2,3.3c-2.1-0.2-3.6-2.1-3.3-4.2C7.7,4.3,9.5,2.8,11.6,3
						C13.7,3.3,15.2,5.2,14.9,7.2z"/> </g> </g> <rect x="2.5" y="9.3" transform="matrix(0.6198 0.7848 -0.7848 0.6198 11.5569 2.0658)" fill=" #2683b4" width="2.4" height="7.4"/> </g> </g> <polygon fill=" #2683b4" points="8.3,14.4 7.5,13.7 7.1,14.2 6.6,13.8 7.3,12.7 8.4,13.6 10.7,12.9 12.9,13.5 15,12.9 16,13.3 
		15.7,14 15,13.6 13,14.2 10.7,13.6 	"/> <polygon fill=" #2683b4" points="8.3,10.5 7.5,9.8 7.1,10.3 6.6,9.9 7.3,8.8 8.4,9.7 10.7,9 12.9,9.6 15,9 16,9.4 15.7,10 15,9.7 
		13,10.3 10.7,9.7 	"/> <polygon fill=" #2683b4" points="8.3,7.6 7.5,6.9 7.1,7.4 6.6,7 7.3,5.9 8.4,6.8 10.7,6 12.9,6.6 15,6 16,6.5 15.7,7.1 15,6.8 
		13,7.4 10.7,6.8 	"/> </g> </symbol><symbol viewBox="0 0 17 12.2" id="shape-security"><title>security</title>  <g> <path fill=" #2683b4" d="M16.6,2.7c-1-2.3-3.6-3.3-5.8-2.2C9.3,1.2,8.4,2.7,8.3,4.4l0.3-0.2c0.8-0.4,1.9,0.1,2.4,1.3
		c0.5,1.1,0.2,2.4-0.6,2.8l-0.3,0.2c1.3,0.9,2.9,1.2,4.4,0.4C16.7,7.8,17.6,5,16.6,2.7z M14.9,5.1c-0.6,0.3-1.4,0-1.7-0.6
		c-0.3-0.7,0-1.5,0.6-1.8c0.6-0.3,1.4,0,1.7,0.6C15.7,4,15.5,4.8,14.9,5.1z"/> <path fill=" #2683b4" d="M10.8,5.6c-0.5-1-1.4-1.5-2.2-1.1L8.3,4.6L0.8,8.4c-0.8,0.4-1,1.5-0.5,2.5c0.5,1,1.4,1.5,2.2,1.1l0,0l0,0
		l0.2-1.3l1.1,0.6l0,0l0.3-0.1l0,0l0.2-1.3l1.1,0.6l0,0l0.3-0.1l0,0L6,9.1L7,9.7l0,0l0.3-0.1l0,0l0.2-1.3l1.1,0.6l0,0L10,8.2
		l0.3-0.1C11,7.7,11.2,6.6,10.8,5.6z"/> </g> </symbol><symbol viewBox="0 0 15 17" id="shape-stats"><title>stats</title>  <g> <polygon fill=" #2683b4" points="6.4,7.4 3.2,10.6 3.2,5.3 2.1,5.3 2.1,13.8 11.8,13.8 11.8,12.8 3.2,12.8 3.2,12.1 6.4,8.9 
		8.6,11.1 11.8,7.9 11.8,6.4 8.6,9.6 	"/> <path fill=" #2683b4" d="M11.5,0H0v17h15V3.5L11.5,0z M11.8,1.8l1.4,1.4h-1.4V1.8z M13.9,15.9H1.1V1.1h9.6v3.2h3.2V15.9z"/> </g> </symbol><symbol viewBox="0 0 16 16" id="shape-superstar"><title>superstar</title>  <path fill=" #2683b4" d="M8,0C3.6,0,0,3.6,0,8s3.6,8,8,8c4.4,0,8-3.6,8-8S12.4,0,8,0z M11.7,13.3L8,11.4l-3.7,1.9L5,9.2L2,6.3
	l4.1-0.6L8,2l1.8,3.7L14,6.3l-3,2.9L11.7,13.3z"/> </symbol><symbol viewBox="0 0 17.9 16.9" id="shape-team"><title>team</title>  <g> <circle fill=" #2683b4" cx="9" cy="7.9" r="2.9"/> <path fill=" #2683b4" d="M3.4,16.9c0-4.8,2.4-6.4,5.4-6.4c3,0,5.4,1.6,5.4,6.4H3.4z"/> <g> <circle fill=" #2683b4" cx="2.9" cy="5.7" r="2.2"/> <path fill=" #2683b4" d="M0,10.7c0-2.1,1.3-3,2.9-3c1.6,0,2.9,0.9,2.9,3H0z"/> </g> <g> <circle fill=" #2683b4" cx="15" cy="5.7" r="2.2"/> <path fill=" #2683b4" d="M12.1,10.7c0-2.1,1.3-3,2.9-3c1.6,0,2.9,0.9,2.9,3H12.1z"/> </g> <circle fill=" #2683b4" cx="6.6" cy="1.9" r="2"/> <circle fill=" #2683b4" cx="11.9" cy="1.9" r="2"/> </g> </symbol><symbol viewBox="0 0 16 15" id="shape-warning"><title>warning</title>  <path fill=" #2683b4" d="M15.9,13.9L8.6,0.4c-0.3-0.6-0.8-0.6-1.2,0L0.1,13.9C-0.2,14.5,0.1,15,0.7,15h14.6
	C15.9,15,16.2,14.5,15.9,13.9z M9.2,14.1H6.9v-2.3h2.3V14.1z M9.2,7.2l-0.3,3.9H7.1L6.8,7.2V3.7h2.4V7.2z"/> </symbol></svg>