<svg xmlns="http://www.w3.org/2000/svg">
	<defs></defs>
<symbol viewBox="0 0 17.7 16.6" id="shape-admin"><title>admin</title>  <g> <g> <g> <circle fill=" #2683b4" cx="6.8" cy="3.7" r="3.7"/> <path fill=" #2683b4" d="M0,11.2c0-2.4,3-4.3,6.7-4.3c3.7,0,6.7,1.9,6.7,4.3H0z"/> </g> </g> <path fill=" #2683b4" d="M17.6,5.1l-1.7,1.7l-1.4-1.4l1.7-1.7c-0.8-0.3-1.7-0.1-2.4,0.5C13,5,12.9,6.1,13.3,7l-5.3,5.3
		c-0.9-0.5-2-0.3-2.7,0.4c-0.6,0.7-0.8,1.6-0.5,2.4l1.7-1.7L8,14.7l-1.7,1.7C7,16.7,8,16.6,8.6,15.9c0.7-0.7,0.9-1.8,0.4-2.6L14.4,8
		c0.9,0.4,1.9,0.3,2.6-0.4C17.7,6.9,17.9,5.9,17.6,5.1z"/> </g> </symbol>
<symbol viewBox="0 0 17.8 17.6" id="shape-apis"><title>apis</title>  <g> <g> <g> <g> <g> <path fill=" #2683b4" d="M10.1,10.5l2.1,0.5l0.4-1.6l0.8-0.2l1,1.5l1.8-1.2l-1-1.5l0.5-0.7l1.7,0.4l0.5-2.1l-1.7-0.4L16,4.4
						l1.5-1l-1.2-1.8l-1.5,1l-0.7-0.5l0.4-1.6L12.4,0L12,1.6l-0.9,0.1l-0.9-1.5L8.4,1.5l0.9,1.5L8.9,3.6L7.3,3.3L6.8,5.4l1.6,0.3
						l0.2,0.9L7.1,7.5l1.2,1.8l1.5-0.9l0.7,0.5L10.1,10.5z M10.3,5c0.2-1.1,1.3-1.8,2.4-1.5c1.1,0.2,1.8,1.3,1.5,2.4
						c-0.2,1.1-1.3,1.8-2.4,1.5C10.7,7.2,10.1,6.1,10.3,5z"/> </g> </g> </g> </g> <g> <g> <g> <g> <path fill=" #2683b4" d="M3.3,17.2l2.1,0.4L5.7,16l0.8-0.2l1,1.5l1.8-1.2l-1-1.5L8.8,14l1.7,0.4l0.5-2.1l-1.7-0.4l-0.1-0.8
						l1.5-1L9.5,8.3L8,9.3L7.3,8.8l0.4-1.6L5.6,6.7L5.2,8.3L4.4,8.5L3.4,7L1.6,8.2l0.9,1.5L2,10.3L0.5,10L0,12.1l1.6,0.3l0.2,0.9
						l-1.5,0.9L1.5,16l1.5-0.9l0.7,0.5L3.3,17.2z M3.5,11.7c0.2-1.1,1.3-1.8,2.4-1.5c1.1,0.2,1.8,1.3,1.5,2.4
						c-0.2,1.1-1.3,1.8-2.4,1.5C3.9,13.9,3.2,12.8,3.5,11.7z"/> </g> </g> </g> </g> </g> </symbol>
</svg>